<mxfile host="app.diagrams.net" modified="2021-05-10T01:31:21.603Z" agent="5.0 (Windows NT 10.0; Win64; x64) AppleWebKit/537.36 (KHTML, like Gecko) Chrome/90.0.4430.93 Safari/537.36" etag="Kwe5Edxd4w_bwCsZ-Det" version="14.6.10" type="github">
  <diagram name="Page-1" id="74e2e168-ea6b-b213-b513-2b3c1d86103e">
    <mxGraphModel dx="1422" dy="762" grid="1" gridSize="10" guides="1" tooltips="1" connect="1" arrows="1" fold="1" page="1" pageScale="1" pageWidth="1100" pageHeight="850" background="#ffffff" math="0" shadow="0">
      <root>
        <mxCell id="0" />
        <mxCell id="1" parent="0" />
        <mxCell id="77e6c97f196da883-1" value="Save Project Process" style="swimlane;html=1;childLayout=stackLayout;startSize=20;rounded=0;shadow=0;labelBackgroundColor=none;strokeWidth=1;fontFamily=Verdana;fontSize=8;align=center;" parent="1" vertex="1">
          <mxGeometry x="30" y="10" width="1230" height="1010" as="geometry" />
        </mxCell>
        <mxCell id="77e6c97f196da883-2" value="TclCommand:Save_project" style="swimlane;html=1;startSize=20;" parent="77e6c97f196da883-1" vertex="1">
          <mxGeometry y="20" width="160" height="990" as="geometry" />
        </mxCell>
        <mxCell id="77e6c97f196da883-8" value="TclSaveProject&lt;br&gt;::Eval()" style="rounded=1;whiteSpace=wrap;html=1;shadow=0;labelBackgroundColor=none;strokeWidth=1;fontFamily=Verdana;fontSize=8;align=center;" parent="77e6c97f196da883-2" vertex="1">
          <mxGeometry x="20" y="38" width="100" height="60" as="geometry" />
        </mxCell>
        <mxCell id="QM8C0Bvktd5hpOcY2XxI-172" value="Change save data if save to same project" style="rounded=1;whiteSpace=wrap;html=1;shadow=0;labelBackgroundColor=none;strokeWidth=1;fontFamily=Verdana;fontSize=8;align=center;" vertex="1" parent="77e6c97f196da883-2">
          <mxGeometry x="30" y="740" width="100" height="60" as="geometry" />
        </mxCell>
        <mxCell id="QM8C0Bvktd5hpOcY2XxI-173" value="end" style="shape=mxgraph.flowchart.terminator;strokeWidth=2;gradientColor=none;gradientDirection=north;fontStyle=0;html=1;" vertex="1" parent="77e6c97f196da883-2">
          <mxGeometry x="20" y="840" width="120" height="30" as="geometry" />
        </mxCell>
        <mxCell id="77e6c97f196da883-26" style="edgeStyle=orthogonalEdgeStyle;rounded=1;html=1;labelBackgroundColor=none;startArrow=none;startFill=0;startSize=5;endArrow=classicThin;endFill=1;endSize=5;jettySize=auto;orthogonalLoop=1;strokeWidth=1;fontFamily=Verdana;fontSize=8;entryX=0;entryY=0.5;entryDx=0;entryDy=0;" parent="77e6c97f196da883-1" source="77e6c97f196da883-8" target="QM8C0Bvktd5hpOcY2XxI-1" edge="1">
          <mxGeometry relative="1" as="geometry">
            <mxPoint x="190" y="86" as="targetPoint" />
          </mxGeometry>
        </mxCell>
        <mxCell id="77e6c97f196da883-3" value="dbFileMgr" style="swimlane;html=1;startSize=20;" parent="77e6c97f196da883-1" vertex="1">
          <mxGeometry x="160" y="20" width="180" height="990" as="geometry" />
        </mxCell>
        <mxCell id="QM8C0Bvktd5hpOcY2XxI-174" style="edgeStyle=orthogonalEdgeStyle;rounded=0;orthogonalLoop=1;jettySize=auto;html=1;exitX=0.5;exitY=1;exitDx=0;exitDy=0;entryX=0.5;entryY=0;entryDx=0;entryDy=0;" edge="1" parent="77e6c97f196da883-3" source="QM8C0Bvktd5hpOcY2XxI-1" target="QM8C0Bvktd5hpOcY2XxI-175">
          <mxGeometry relative="1" as="geometry">
            <mxPoint x="90" y="130" as="targetPoint" />
          </mxGeometry>
        </mxCell>
        <mxCell id="QM8C0Bvktd5hpOcY2XxI-1" value="Init_Project &amp;amp;&lt;br&gt;Prepare for Write Databse" style="rounded=1;whiteSpace=wrap;html=1;shadow=0;labelBackgroundColor=none;strokeWidth=1;fontFamily=Verdana;fontSize=8;align=center;" vertex="1" parent="77e6c97f196da883-3">
          <mxGeometry x="40" y="38" width="100" height="60" as="geometry" />
        </mxCell>
        <mxCell id="QM8C0Bvktd5hpOcY2XxI-171" value="Restore&lt;br&gt;necessary Info" style="rounded=1;whiteSpace=wrap;html=1;shadow=0;labelBackgroundColor=none;strokeWidth=1;fontFamily=Verdana;fontSize=8;align=center;" vertex="1" parent="77e6c97f196da883-3">
          <mxGeometry x="40" y="740" width="100" height="60" as="geometry" />
        </mxCell>
        <mxCell id="QM8C0Bvktd5hpOcY2XxI-180" style="edgeStyle=orthogonalEdgeStyle;rounded=0;orthogonalLoop=1;jettySize=auto;html=1;exitX=0.5;exitY=1;exitDx=0;exitDy=0;entryX=0.5;entryY=0;entryDx=0;entryDy=0;" edge="1" parent="77e6c97f196da883-3" source="QM8C0Bvktd5hpOcY2XxI-175" target="QM8C0Bvktd5hpOcY2XxI-176">
          <mxGeometry relative="1" as="geometry" />
        </mxCell>
        <mxCell id="QM8C0Bvktd5hpOcY2XxI-175" value="&lt;span style=&quot;font-family: &amp;#34;verdana&amp;#34;&quot;&gt;Write TECH file&lt;/span&gt;" style="rounded=1;whiteSpace=wrap;html=1;shadow=0;labelBackgroundColor=none;strokeWidth=1;fontFamily=Verdana;fontSize=8;align=center;" vertex="1" parent="77e6c97f196da883-3">
          <mxGeometry x="40" y="140" width="100" height="60" as="geometry" />
        </mxCell>
        <mxCell id="QM8C0Bvktd5hpOcY2XxI-181" style="edgeStyle=orthogonalEdgeStyle;rounded=0;orthogonalLoop=1;jettySize=auto;html=1;exitX=0.5;exitY=1;exitDx=0;exitDy=0;entryX=0.5;entryY=0;entryDx=0;entryDy=0;" edge="1" parent="77e6c97f196da883-3" source="QM8C0Bvktd5hpOcY2XxI-176" target="QM8C0Bvktd5hpOcY2XxI-177">
          <mxGeometry relative="1" as="geometry" />
        </mxCell>
        <mxCell id="QM8C0Bvktd5hpOcY2XxI-176" value="&lt;span style=&quot;font-family: &amp;#34;verdana&amp;#34;&quot;&gt;Write TECH2 file&lt;/span&gt;" style="rounded=1;whiteSpace=wrap;html=1;shadow=0;labelBackgroundColor=none;strokeWidth=1;fontFamily=Verdana;fontSize=8;align=center;" vertex="1" parent="77e6c97f196da883-3">
          <mxGeometry x="30" y="240" width="120" height="60" as="geometry" />
        </mxCell>
        <mxCell id="QM8C0Bvktd5hpOcY2XxI-183" style="edgeStyle=orthogonalEdgeStyle;rounded=0;orthogonalLoop=1;jettySize=auto;html=1;exitX=0.5;exitY=1;exitDx=0;exitDy=0;entryX=0.5;entryY=0;entryDx=0;entryDy=0;" edge="1" parent="77e6c97f196da883-3" source="QM8C0Bvktd5hpOcY2XxI-177" target="QM8C0Bvktd5hpOcY2XxI-178">
          <mxGeometry relative="1" as="geometry" />
        </mxCell>
        <mxCell id="QM8C0Bvktd5hpOcY2XxI-177" value="&lt;span style=&quot;font-family: &amp;#34;verdana&amp;#34;&quot;&gt;Write DESIGN file&lt;/span&gt;" style="rounded=1;whiteSpace=wrap;html=1;shadow=0;labelBackgroundColor=none;strokeWidth=1;fontFamily=Verdana;fontSize=8;align=center;" vertex="1" parent="77e6c97f196da883-3">
          <mxGeometry x="30" y="350" width="120" height="60" as="geometry" />
        </mxCell>
        <mxCell id="QM8C0Bvktd5hpOcY2XxI-185" style="edgeStyle=orthogonalEdgeStyle;shape=arrow;rounded=0;orthogonalLoop=1;jettySize=auto;html=1;exitX=0.5;exitY=1;exitDx=0;exitDy=0;entryX=0.5;entryY=0;entryDx=0;entryDy=0;" edge="1" parent="77e6c97f196da883-3" source="QM8C0Bvktd5hpOcY2XxI-178" target="QM8C0Bvktd5hpOcY2XxI-179">
          <mxGeometry relative="1" as="geometry" />
        </mxCell>
        <mxCell id="QM8C0Bvktd5hpOcY2XxI-178" value="&lt;span style=&quot;font-family: &amp;#34;verdana&amp;#34;&quot;&gt;Write CONFIG file&lt;/span&gt;" style="rounded=1;whiteSpace=wrap;html=1;shadow=0;labelBackgroundColor=none;strokeWidth=1;fontFamily=Verdana;fontSize=8;align=center;" vertex="1" parent="77e6c97f196da883-3">
          <mxGeometry x="30" y="465" width="120" height="60" as="geometry" />
        </mxCell>
        <mxCell id="QM8C0Bvktd5hpOcY2XxI-186" style="edgeStyle=orthogonalEdgeStyle;shape=arrow;rounded=0;orthogonalLoop=1;jettySize=auto;html=1;exitX=0.5;exitY=1;exitDx=0;exitDy=0;entryX=0.5;entryY=0;entryDx=0;entryDy=0;" edge="1" parent="77e6c97f196da883-3" source="QM8C0Bvktd5hpOcY2XxI-179" target="QM8C0Bvktd5hpOcY2XxI-171">
          <mxGeometry relative="1" as="geometry" />
        </mxCell>
        <mxCell id="QM8C0Bvktd5hpOcY2XxI-179" value="&lt;span style=&quot;font-family: &amp;#34;verdana&amp;#34;&quot;&gt;Write ......ALL OTHER files&lt;/span&gt;" style="rounded=1;whiteSpace=wrap;html=1;shadow=0;labelBackgroundColor=none;strokeWidth=1;fontFamily=Verdana;fontSize=8;align=center;" vertex="1" parent="77e6c97f196da883-3">
          <mxGeometry x="30" y="580" width="120" height="110" as="geometry" />
        </mxCell>
        <mxCell id="77e6c97f196da883-5" value="dbFileWrite::WriteDbFile" style="swimlane;html=1;startSize=20;" parent="77e6c97f196da883-1" vertex="1">
          <mxGeometry x="340" y="20" width="350" height="990" as="geometry" />
        </mxCell>
        <mxCell id="QM8C0Bvktd5hpOcY2XxI-85" style="edgeStyle=orthogonalEdgeStyle;rounded=0;orthogonalLoop=1;jettySize=auto;html=1;exitX=0.5;exitY=1;exitDx=0;exitDy=0;entryX=0.5;entryY=0;entryDx=0;entryDy=0;" edge="1" parent="77e6c97f196da883-5" source="77e6c97f196da883-15" target="QM8C0Bvktd5hpOcY2XxI-21">
          <mxGeometry relative="1" as="geometry" />
        </mxCell>
        <mxCell id="77e6c97f196da883-15" value="Prepare for Dbfile Writing" style="rounded=1;whiteSpace=wrap;html=1;shadow=0;labelBackgroundColor=none;strokeWidth=1;fontFamily=Verdana;fontSize=8;align=center;" parent="77e6c97f196da883-5" vertex="1">
          <mxGeometry x="30" y="35" width="100" height="60" as="geometry" />
        </mxCell>
        <mxCell id="QM8C0Bvktd5hpOcY2XxI-86" style="edgeStyle=orthogonalEdgeStyle;rounded=0;orthogonalLoop=1;jettySize=auto;html=1;exitX=0.5;exitY=1;exitDx=0;exitDy=0;entryX=0.5;entryY=0;entryDx=0;entryDy=0;" edge="1" parent="77e6c97f196da883-5" source="QM8C0Bvktd5hpOcY2XxI-21" target="QM8C0Bvktd5hpOcY2XxI-30">
          <mxGeometry relative="1" as="geometry" />
        </mxCell>
        <mxCell id="QM8C0Bvktd5hpOcY2XxI-21" value="Write DbFile&lt;br&gt;Header" style="rounded=1;whiteSpace=wrap;html=1;shadow=0;labelBackgroundColor=none;strokeWidth=1;fontFamily=Verdana;fontSize=8;align=center;" vertex="1" parent="77e6c97f196da883-5">
          <mxGeometry x="30" y="120" width="100" height="60" as="geometry" />
        </mxCell>
        <mxCell id="QM8C0Bvktd5hpOcY2XxI-30" value="WriteProc&lt;br&gt;callback" style="rounded=1;whiteSpace=wrap;html=1;shadow=0;labelBackgroundColor=none;strokeWidth=1;fontFamily=Verdana;fontSize=8;align=center;" vertex="1" parent="77e6c97f196da883-5">
          <mxGeometry x="30" y="210" width="100" height="60" as="geometry" />
        </mxCell>
        <mxCell id="QM8C0Bvktd5hpOcY2XxI-41" value="Write Hidden&lt;br&gt;Persist Param" style="rounded=1;whiteSpace=wrap;html=1;shadow=0;labelBackgroundColor=none;strokeWidth=1;fontFamily=Verdana;fontSize=8;align=center;" vertex="1" parent="77e6c97f196da883-5">
          <mxGeometry x="200" y="110" width="100" height="60" as="geometry" />
        </mxCell>
        <mxCell id="QM8C0Bvktd5hpOcY2XxI-94" value="Start Write Design&lt;br&gt;Data" style="shape=mxgraph.flowchart.terminator;strokeWidth=2;gradientColor=none;gradientDirection=north;fontStyle=0;html=1;" vertex="1" parent="77e6c97f196da883-5">
          <mxGeometry x="190" y="50" width="120" height="30" as="geometry" />
        </mxCell>
        <mxCell id="QM8C0Bvktd5hpOcY2XxI-147" value="Write moduleFile&lt;br&gt;RecordHeader info" style="rounded=1;whiteSpace=wrap;html=1;shadow=0;labelBackgroundColor=none;strokeWidth=1;fontFamily=Verdana;fontSize=8;align=center;" vertex="1" parent="77e6c97f196da883-5">
          <mxGeometry x="200" y="365" width="100" height="60" as="geometry" />
        </mxCell>
        <mxCell id="QM8C0Bvktd5hpOcY2XxI-148" value="Write module Ref Idx Extra Data" style="rounded=1;whiteSpace=wrap;html=1;shadow=0;labelBackgroundColor=none;strokeWidth=1;fontFamily=Verdana;fontSize=8;align=center;" vertex="1" parent="77e6c97f196da883-5">
          <mxGeometry x="200" y="460" width="100" height="60" as="geometry" />
        </mxCell>
        <mxCell id="QM8C0Bvktd5hpOcY2XxI-157" value="Write module Data Field" style="rounded=1;whiteSpace=wrap;html=1;shadow=0;labelBackgroundColor=none;strokeWidth=1;fontFamily=Verdana;fontSize=8;align=center;" vertex="1" parent="77e6c97f196da883-5">
          <mxGeometry x="200" y="540" width="100" height="60" as="geometry" />
        </mxCell>
        <mxCell id="QM8C0Bvktd5hpOcY2XxI-164" value="Write All UserVio data in&amp;nbsp;&lt;br&gt;dbModule" style="rounded=1;whiteSpace=wrap;html=1;shadow=0;labelBackgroundColor=none;strokeWidth=1;fontFamily=Verdana;fontSize=8;align=center;" vertex="1" parent="77e6c97f196da883-5">
          <mxGeometry x="210" y="840" width="100" height="60" as="geometry" />
        </mxCell>
        <mxCell id="77e6c97f196da883-6" value="dbModule" style="swimlane;html=1;startSize=20;" parent="77e6c97f196da883-1" vertex="1">
          <mxGeometry x="690" y="20" width="250" height="990" as="geometry" />
        </mxCell>
        <mxCell id="77e6c97f196da883-22" value="Get all data of dbModule" style="rounded=1;whiteSpace=wrap;html=1;shadow=0;labelBackgroundColor=none;strokeWidth=1;fontFamily=Verdana;fontSize=8;align=center;" parent="77e6c97f196da883-6" vertex="1">
          <mxGeometry x="80" y="470" width="100" height="60" as="geometry" />
        </mxCell>
        <mxCell id="QM8C0Bvktd5hpOcY2XxI-95" value="dbModuleModuleIter" style="swimlane;" vertex="1" parent="77e6c97f196da883-6">
          <mxGeometry x="50" y="150" width="140" height="90" as="geometry" />
        </mxCell>
        <mxCell id="QM8C0Bvktd5hpOcY2XxI-96" value="Begin from Topmodule&lt;br&gt;Check for each &lt;br&gt;modulein Iter" style="text;html=1;align=center;verticalAlign=middle;resizable=0;points=[];autosize=1;strokeColor=none;" vertex="1" parent="QM8C0Bvktd5hpOcY2XxI-95">
          <mxGeometry y="28" width="140" height="50" as="geometry" />
        </mxCell>
        <mxCell id="QM8C0Bvktd5hpOcY2XxI-83" value="is Module available" style="rhombus;whiteSpace=wrap;html=1;rounded=0;shadow=0;labelBackgroundColor=none;strokeWidth=1;fontFamily=Verdana;fontSize=8;align=center;" vertex="1" parent="77e6c97f196da883-6">
          <mxGeometry x="55" y="280" width="140" height="70" as="geometry" />
        </mxCell>
        <mxCell id="QM8C0Bvktd5hpOcY2XxI-104" value="Get moduleFile&lt;br&gt;RecordHeader info" style="rounded=1;whiteSpace=wrap;html=1;shadow=0;labelBackgroundColor=none;strokeWidth=1;fontFamily=Verdana;fontSize=8;align=center;" vertex="1" parent="77e6c97f196da883-6">
          <mxGeometry x="75" y="370" width="100" height="60" as="geometry" />
        </mxCell>
        <mxCell id="77e6c97f196da883-7" value="dbVio" style="swimlane;html=1;startSize=20;" parent="77e6c97f196da883-1" vertex="1">
          <mxGeometry x="940" y="20" width="260" height="990" as="geometry" />
        </mxCell>
        <mxCell id="QM8C0Bvktd5hpOcY2XxI-158" value="dbModuleVioIter" style="swimlane;" vertex="1" parent="77e6c97f196da883-7">
          <mxGeometry x="60" y="445" width="140" height="90" as="geometry" />
        </mxCell>
        <mxCell id="QM8C0Bvktd5hpOcY2XxI-159" value="Begin from Topmodule&lt;br&gt;Check for each &lt;br&gt;modulein Iter" style="text;html=1;align=center;verticalAlign=middle;resizable=0;points=[];autosize=1;strokeColor=none;" vertex="1" parent="QM8C0Bvktd5hpOcY2XxI-158">
          <mxGeometry y="28" width="140" height="50" as="geometry" />
        </mxCell>
        <mxCell id="QM8C0Bvktd5hpOcY2XxI-160" value="Vio isUserRule" style="rhombus;whiteSpace=wrap;html=1;rounded=0;shadow=0;labelBackgroundColor=none;strokeWidth=1;fontFamily=Verdana;fontSize=8;align=center;" vertex="1" parent="77e6c97f196da883-7">
          <mxGeometry x="60" y="560" width="140" height="70" as="geometry" />
        </mxCell>
        <mxCell id="QM8C0Bvktd5hpOcY2XxI-161" value="check for USER Rule&lt;br&gt;From start to End" style="shape=mxgraph.flowchart.data;strokeWidth=2;gradientColor=none;gradientDirection=north;fontStyle=0;html=1;" vertex="1" parent="77e6c97f196da883-7">
          <mxGeometry x="51" y="660" width="159" height="80" as="geometry" />
        </mxCell>
        <mxCell id="QM8C0Bvktd5hpOcY2XxI-162" value="Vio isUserRule" style="rhombus;whiteSpace=wrap;html=1;rounded=0;shadow=0;labelBackgroundColor=none;strokeWidth=1;fontFamily=Verdana;fontSize=8;align=center;" vertex="1" parent="77e6c97f196da883-7">
          <mxGeometry x="60" y="760" width="140" height="70" as="geometry" />
        </mxCell>
        <mxCell id="QM8C0Bvktd5hpOcY2XxI-163" value="Get all data of&amp;nbsp;&lt;br&gt;dbVio" style="rounded=1;whiteSpace=wrap;html=1;shadow=0;labelBackgroundColor=none;strokeWidth=1;fontFamily=Verdana;fontSize=8;align=center;" vertex="1" parent="77e6c97f196da883-7">
          <mxGeometry x="80" y="860" width="100" height="60" as="geometry" />
        </mxCell>
        <mxCell id="QM8C0Bvktd5hpOcY2XxI-188" style="edgeStyle=orthogonalEdgeStyle;rounded=0;orthogonalLoop=1;jettySize=auto;html=1;exitX=1;exitY=0.5;exitDx=0;exitDy=0;entryX=0;entryY=0.5;entryDx=0;entryDy=0;" edge="1" parent="77e6c97f196da883-1" source="QM8C0Bvktd5hpOcY2XxI-177" target="77e6c97f196da883-15">
          <mxGeometry relative="1" as="geometry">
            <Array as="points">
              <mxPoint x="330" y="400" />
              <mxPoint x="330" y="85" />
            </Array>
          </mxGeometry>
        </mxCell>
      </root>
    </mxGraphModel>
  </diagram>
</mxfile>
